# File created by Blade
# Date/Time:  Thu Sep 25 14:26:36 2014
# Frame Rate: 120.000 fps
#------------------------------------------------------
:FULLY-SPECIFIED
:DEGREES
433
root 9.086886 32.591671 1.308201 -166.900483 88.473962 -168.928115
Spine -0.051149 9.875680 0.315338
Head 23.008132 -8.526491 7.416401
LeftShoulder -14.821344 22.424069 11.870764
LeftArm 20.341415 15.267556 -72.712239
LeftForeArm 10.515490 -0.000000 32.106098
LeftHand -26.616293 -0.000000 3.436219
LeftHandThumb1 -26.253704 0.000000 33.147579
RightShoulder -19.261986 12.902704 -26.586467
RightArm -9.078821 -20.466175 80.058783
RightForeArm -21.873849 -0.000000 22.600332
RightHand -6.272510 -0.000000 4.059100
RightHandThumb1 -24.326973 -0.000000 -32.862282
LeftUpLeg -17.080267 7.303720 9.926676
LeftLeg 43.991145 -0.000000 -0.000000
LeftFoot -21.334089 6.838752 -27.855739
LeftToeBase -0.116126 -0.000000 0.000000
RightUpLeg -10.723880 -7.374763 1.284430
RightLeg 15.372887 -0.000000 -0.000000
RightFoot -11.932852 -9.079844 -7.313304
RightToeBase 0.970869 -0.000000 -0.000000
434
root 9.180547 32.603115 1.308540 -166.506367 88.414417 -168.474484
Spine -0.088514 9.957403 0.351226
Head 23.034434 -8.636472 7.417226
LeftShoulder -14.784732 22.426550 11.904873
LeftArm 20.470128 15.409657 -72.473906
LeftForeArm 10.206068 0.000000 31.876427
LeftHand -26.330505 0.000000 3.359860
LeftHandThumb1 -26.253704 0.000000 33.147579
RightShoulder -19.241945 12.923251 -26.605556
RightArm -8.946123 -20.430449 79.899381
RightForeArm -21.961133 -0.000000 22.643692
RightHand -6.349167 0.000000 3.944632
RightHandThumb1 -24.326973 -0.000000 -32.862282
LeftUpLeg -16.717654 7.334808 10.093207
LeftLeg 41.760558 -0.000000 -0.000000
LeftFoot -22.019419 8.048856 -27.773037
LeftToeBase -0.070868 -0.000000 0.000000
RightUpLeg -10.367793 -7.644289 1.294955
RightLeg 15.119617 -0.000000 -0.000000
RightFoot -11.982770 -8.877157 -7.375926
RightToeBase 0.971423 -0.000000 -0.000000
435
root 9.271369 32.611347 1.307821 -165.246838 88.395870 -167.206660
Spine -0.198912 10.072361 0.380475
Head 23.047351 -8.733305 7.401647
LeftShoulder -14.759217 22.444500 11.929807
LeftArm 20.578788 15.421836 -72.265483
LeftForeArm 10.179121 -0.000000 31.551083
LeftHand -26.363397 -0.000000 3.375774
LeftHandThumb1 -26.253704 0.000000 33.147579
RightShoulder -19.226593 12.938418 -26.616333
RightArm -8.810160 -20.431491 79.726261
RightForeArm -21.895575 -0.000000 22.690395
RightHand -6.425036 0.000000 3.900194
RightHandThumb1 -24.326973 -0.000000 -32.862282
LeftUpLeg -16.359135 7.428939 10.260322
LeftLeg 39.403935 -0.000000 -0.000000
LeftFoot -22.551965 9.232915 -27.641282
LeftToeBase 0.008223 -0.000000 -0.000000
RightUpLeg -10.080927 -7.850577 1.326631
RightLeg 14.871131 -0.000000 -0.000000
RightFoot -12.015793 -8.726959 -7.423548
RightToeBase 0.978113 -0.000000 -0.000000
436
root 9.362479 32.616380 1.307026 -162.735262 88.378047 -164.669048
Spine -0.294755 10.155855 0.453717
Head 23.049538 -8.780958 7.389578
LeftShoulder -14.762276 22.489187 11.963593
LeftArm 20.735693 15.572211 -72.005478
LeftForeArm 9.894341 -0.000000 31.207601
LeftHand -26.233452 -0.000000 3.389847
LeftHandThumb1 -26.253704 0.000000 33.147579
RightShoulder -19.188840 12.982024 -26.628859
RightArm -8.668738 -20.464728 79.545989
RightForeArm -21.940747 -0.000000 22.681349
RightHand -6.242175 -0.000000 3.817476
RightHandThumb1 -24.326973 -0.000000 -32.862282
LeftUpLeg -15.940621 7.535722 10.461746
LeftLeg 36.940383 -0.000000 -0.000000
LeftFoot -23.081865 10.347546 -27.590825
LeftToeBase 0.389290 -0.000000 -0.000000
RightUpLeg -9.772496 -8.041485 1.385783
RightLeg 14.642434 -0.000000 -0.000000
RightFoot -12.067777 -8.567674 -7.382809
RightToeBase 0.909682 -0.000000 -0.000000
437
root 9.453622 32.620123 1.301829 -159.940053 88.361122 -161.873036
Spine -0.442648 10.204699 0.530673
Head 23.075982 -8.816145 7.376398
LeftShoulder -14.811456 22.524490 11.952857
LeftArm 20.830337 15.629230 -71.788249
LeftForeArm 9.676052 -0.000000 30.874072
LeftHand -26.328182 -0.000000 3.748003
LeftHandThumb1 -26.253704 0.000000 33.147579
RightShoulder -19.133736 13.060314 -26.640906
RightArm -8.537299 -20.526542 79.359828
RightForeArm -21.902789 -0.000000 22.675993
RightHand -6.215983 -0.000000 3.783033
RightHandThumb1 -24.326973 -0.000000 -32.862282
LeftUpLeg -15.508529 7.688862 10.644146
LeftLeg 34.357373 -0.000000 -0.000000
LeftFoot -23.313849 11.492273 -27.246336
LeftToeBase 0.157882 -0.000000 -0.000000
RightUpLeg -9.500028 -8.219781 1.442526
RightLeg 14.433231 -0.000000 -0.000000
RightFoot -12.127043 -8.401326 -7.406831
RightToeBase 0.833896 -0.000000 -0.000000
438
root 9.546126 32.621041 1.294821 -156.262738 88.370588 -158.162439
Spine -0.552496 10.288238 0.616743
Head 23.057041 -8.855011 7.397616
LeftShoulder -14.814869 22.562208 11.973999
LeftArm 20.908993 15.620928 -71.617392
LeftForeArm 9.456238 0.000000 30.512137
LeftHand -26.166941 -0.000000 3.783877
LeftHandThumb1 -26.253704 0.000000 33.147579
RightShoulder -19.099683 13.113455 -26.617791
RightArm -8.359991 -20.664678 79.129360
RightForeArm -21.914534 0.000000 22.683712
RightHand -6.164922 -0.000000 3.764187
RightHandThumb1 -24.326973 -0.000000 -32.862282
LeftUpLeg -15.012877 7.873819 10.839751
LeftLeg 31.756686 -0.000000 -0.000000
LeftFoot -23.367360 12.416390 -26.887512
LeftToeBase -0.308739 -0.000000 0.000000
RightUpLeg -9.207026 -8.316858 1.502552
RightLeg 14.243198 -0.000000 -0.000000
RightFoot -12.217530 -8.269875 -7.394048
RightToeBase 0.821612 -0.000000 -0.000000
